<?xml version="1.0" encoding="utf-8" standalone="no"?>
<!DOCTYPE svg PUBLIC "-//W3C//DTD SVG 1.1//EN"
  "http://www.w3.org/Graphics/SVG/1.1/DTD/svg11.dtd">
<svg xmlns:xlink="http://www.w3.org/1999/xlink" width="320.551945pt" height="345.6pt" viewBox="0 0 320.551945 345.6" xmlns="http://www.w3.org/2000/svg" version="1.1">
 <metadata>
  <rdf:RDF xmlns:dc="http://purl.org/dc/elements/1.1/" xmlns:cc="http://creativecommons.org/ns#" xmlns:rdf="http://www.w3.org/1999/02/22-rdf-syntax-ns#">
   <cc:Work>
    <dc:type rdf:resource="http://purl.org/dc/dcmitype/StillImage"/>
    <dc:date>2025-04-30T10:44:06.493012</dc:date>
    <dc:format>image/svg+xml</dc:format>
    <dc:creator>
     <cc:Agent>
      <dc:title>Matplotlib v3.7.1, https://matplotlib.org/</dc:title>
     </cc:Agent>
    </dc:creator>
   </cc:Work>
  </rdf:RDF>
 </metadata>
 <defs>
  <style type="text/css">*{stroke-linejoin: round; stroke-linecap: butt}</style>
 </defs>
 <g id="figure_1">
  <g id="patch_1">
   <path d="M 0 345.6 
L 320.551945 345.6 
L 320.551945 0 
L 0 0 
z
" style="fill: #ffffff"/>
  </g>
  <g id="axes_1">
   <g id="patch_2">
    <path d="M 0 345.6 
L 320.551945 345.6 
L 320.551945 0 
L 0 0 
z
" style="fill: #212830"/>
   </g>
   <g id="patch_3">
    <path d="M 42.189882 283.162502 
L 41.65334 277.008619 
L 39.740727 278.208276 
L 39.961142 282.980651 
L 42.189882 283.162502 
" clip-path="url(#p4172d17357)" style="fill: #ffffff"/>
   </g>
   <g id="patch_4">
    <path d="M 41.350086 273.911384 
L 40.004116 273.566134 
L 37.919326 275.197586 
L 35.000476 276.708865 
L 35.685426 278.5014 
L 39.740727 278.208276 
L 41.65334 277.008619 
L 41.350086 273.911384 
" clip-path="url(#p4172d17357)" style="fill: #ffffff"/>
   </g>
   <g id="patch_5">
    <path d="M 39.961142 282.980651 
L 39.740727 278.208276 
L 35.685426 278.5014 
L 36.960316 282.238811 
L 39.961142 282.980651 
" clip-path="url(#p4172d17357)" style="fill: #ffffff"/>
   </g>
   <g id="patch_6">
    <path d="M 35.685426 278.5014 
L 35.000476 276.708865 
L 33.66887 277.887377 
L 30.892421 278.995644 
L 29.392574 281.006602 
L 33.571783 281.704516 
L 36.960316 282.238811 
L 35.685426 278.5014 
" clip-path="url(#p4172d17357)" style="fill: #ffffff"/>
   </g>
   <g id="patch_7">
    <path d="M 39.961142 282.980651 
L 36.960316 282.238811 
L 37.520994 285.049648 
L 37.974305 287.758209 
L 38.020605 288.011029 
L 42.833043 287.448038 
L 42.189882 283.162502 
L 39.961142 282.980651 
" clip-path="url(#p4172d17357)" style="fill: #ffffff"/>
   </g>
   <g id="patch_8">
    <path d="M 36.960316 282.238811 
L 33.571783 281.704516 
L 33.053842 284.393216 
L 35.838202 284.105865 
L 37.520994 285.049648 
L 36.960316 282.238811 
" clip-path="url(#p4172d17357)" style="fill: #ffffff"/>
   </g>
   <g id="patch_9">
    <path d="M 37.520994 285.049648 
L 35.838202 284.105865 
L 33.053842 284.393216 
L 32.733127 287.195255 
L 33.034639 288.557167 
L 35.646523 288.720588 
L 37.974305 287.758209 
L 37.520994 285.049648 
" clip-path="url(#p4172d17357)" style="fill: #ffffff"/>
   </g>
   <g id="patch_10">
    <path d="M 29.392574 281.006602 
L 17.050963 279.082434 
L 16.786491 282.981024 
L 18.078173 286.019177 
L 20.706873 289.005267 
L 23.285742 287.475545 
L 28.527263 286.485443 
L 29.287178 288.17167 
L 32.733127 287.195255 
L 33.053842 284.393216 
L 33.571783 281.704516 
L 29.392574 281.006602 
" clip-path="url(#p4172d17357)" style="fill: #ffffff"/>
   </g>
   <g id="patch_11">
    <path d="M 43.831073 292.483706 
L 42.833043 287.448038 
L 38.020605 288.011029 
L 38.420851 291.94163 
L 40.89598 292.097604 
L 41.703689 296.743905 
L 44.530578 296.084181 
L 43.831073 292.483706 
" clip-path="url(#p4172d17357)" style="fill: #ffffff"/>
   </g>
   <g id="patch_12">
    <path d="M 38.020605 288.011029 
L 37.974305 287.758209 
L 35.646523 288.720588 
L 36.673718 291.154815 
L 37.611392 291.97897 
L 38.420851 291.94163 
L 38.020605 288.011029 
" clip-path="url(#p4172d17357)" style="fill: #ffffff"/>
   </g>
   <g id="patch_13">
    <path d="M 35.646523 288.720588 
L 33.034639 288.557167 
L 34.843642 291.666062 
L 35.487221 293.814988 
L 37.752374 293.080915 
L 37.611392 291.97897 
L 36.673718 291.154815 
L 35.646523 288.720588 
" clip-path="url(#p4172d17357)" style="fill: #ffffff"/>
   </g>
   <g id="patch_14">
    <path d="M 32.733127 287.195255 
L 29.287178 288.17167 
L 28.527263 286.485443 
L 23.285742 287.475545 
L 20.706873 289.005267 
L 17.801047 291.565128 
L 23.401057 297.508297 
L 28.850287 292.704921 
L 31.290987 295.114681 
L 35.679145 294.327937 
L 35.487221 293.814988 
L 34.843642 291.666062 
L 33.034639 288.557167 
L 32.733127 287.195255 
" clip-path="url(#p4172d17357)" style="fill: #ffffff"/>
   </g>
   <g id="patch_15">
    <path d="M 41.703689 296.743905 
L 40.89598 292.097604 
L 38.420851 291.94163 
L 37.611392 291.97897 
L 37.752374 293.080915 
L 35.487221 293.814988 
L 35.679145 294.327937 
L 37.104929 295.756863 
L 39.093964 295.154941 
L 39.542706 297.114178 
L 41.703689 296.743905 
" clip-path="url(#p4172d17357)" style="fill: #ffffff"/>
   </g>
   <g id="patch_16">
    <path d="M 35.679145 294.327937 
L 31.290987 295.114681 
L 28.850287 292.704921 
L 23.401057 297.508297 
L 17.532553 302.658618 
L 21.101324 306.514479 
L 17.952881 309.296754 
L 18.279436 309.935178 
L 22.300646 308.911236 
L 29.60043 309.178288 
L 30.008407 305.289413 
L 30.25548 303.269703 
L 30.116432 300.884723 
L 29.364539 298.737902 
L 31.803023 297.567952 
L 36.200179 296.45927 
L 37.104929 295.756863 
L 35.679145 294.327937 
" clip-path="url(#p4172d17357)" style="fill: #ffffff"/>
   </g>
   <g id="patch_17">
    <path d="M 44.977884 298.298423 
L 44.530578 296.084181 
L 41.703689 296.743905 
L 39.542706 297.114178 
L 38.560419 297.737586 
L 40.164307 299.410964 
L 40.805967 301.805442 
L 41.564959 304.167975 
L 42.705123 303.56885 
L 41.49551 299.160886 
L 44.977884 298.298423 
" clip-path="url(#p4172d17357)" style="fill: #ffffff"/>
   </g>
   <g id="patch_18">
    <path d="M 39.542706 297.114178 
L 39.093964 295.154941 
L 37.104929 295.756863 
L 36.200179 296.45927 
L 31.803023 297.567952 
L 29.364539 298.737902 
L 30.116432 300.884723 
L 34.225994 300.157623 
L 34.538549 298.598688 
L 38.560419 297.737586 
L 39.542706 297.114178 
" clip-path="url(#p4172d17357)" style="fill: #ffffff"/>
   </g>
   <g id="patch_19">
    <path d="M 45.076783 298.678804 
L 44.977884 298.298423 
L 41.49551 299.160886 
L 42.705123 303.56885 
L 46.109148 303.712402 
L 45.600955 301.240969 
L 45.076783 298.678804 
" clip-path="url(#p4172d17357)" style="fill: #ffffff"/>
   </g>
   <g id="patch_20">
    <path d="M 40.805967 301.805442 
L 40.164307 299.410964 
L 38.560419 297.737586 
L 34.538549 298.598688 
L 34.225994 300.157623 
L 30.116432 300.884723 
L 30.25548 303.269703 
L 34.522086 303.500576 
L 40.805967 301.805442 
" clip-path="url(#p4172d17357)" style="fill: #ffffff"/>
   </g>
   <g id="patch_21">
    <path d="M 46.109148 303.712402 
L 42.705123 303.56885 
L 41.564959 304.167975 
L 42.173038 305.782741 
L 42.984167 307.852697 
L 45.426881 307.240488 
L 46.953023 308.092624 
L 46.206095 304.247159 
L 46.109148 303.712402 
" clip-path="url(#p4172d17357)" style="fill: #ffffff"/>
   </g>
   <g id="patch_22">
    <path d="M 41.564959 304.167975 
L 40.805967 301.805442 
L 34.522086 303.500576 
L 30.25548 303.269703 
L 30.008407 305.289413 
L 30.991528 306.706606 
L 38.351096 306.962842 
L 42.173038 305.782741 
L 41.564959 304.167975 
" clip-path="url(#p4172d17357)" style="fill: #ffffff"/>
   </g>
   <g id="patch_23">
    <path d="M 46.953023 308.092624 
L 45.426881 307.240488 
L 42.984167 307.852697 
L 43.680141 309.602986 
L 45.226388 313.366916 
L 47.926162 312.800803 
L 46.953023 308.092624 
" clip-path="url(#p4172d17357)" style="fill: #ffffff"/>
   </g>
   <g id="patch_24">
    <path d="M 42.173038 305.782741 
L 38.351096 306.962842 
L 30.991528 306.706606 
L 30.008407 305.289413 
L 29.60043 309.178288 
L 38.436703 309.425346 
L 38.949217 311.062596 
L 41.923611 310.476551 
L 43.680141 309.602986 
L 42.984167 307.852697 
L 42.173038 305.782741 
" clip-path="url(#p4172d17357)" style="fill: #ffffff"/>
   </g>
   <g id="patch_25">
    <path d="M 45.226388 313.366916 
L 43.680141 309.602986 
L 41.923611 310.476551 
L 42.320329 314.617788 
L 45.662154 315.081844 
L 45.226388 313.366916 
" clip-path="url(#p4172d17357)" style="fill: #ffffff"/>
   </g>
   <g id="patch_26">
    <path d="M 42.320329 314.617788 
L 41.923611 310.476551 
L 38.949217 311.062596 
L 38.53177 314.402747 
L 42.220113 314.61559 
L 42.320329 314.617788 
" clip-path="url(#p4172d17357)" style="fill: #ffffff"/>
   </g>
   <g id="patch_27">
    <path d="M 47.926162 312.800803 
L 45.226388 313.366916 
L 45.662154 315.081844 
L 46.015611 317.966589 
L 47.638562 318.143272 
L 48.784912 317.251553 
L 48.686892 316.70875 
L 47.926162 312.800803 
" clip-path="url(#p4172d17357)" style="fill: #ffffff"/>
   </g>
   <g id="patch_28">
    <path d="M 42.320329 314.617788 
L 42.220113 314.61559 
L 42.443385 319.473958 
L 46.04536 319.011825 
L 46.015611 317.966589 
L 45.662154 315.081844 
L 42.320329 314.617788 
" clip-path="url(#p4172d17357)" style="fill: #ffffff"/>
   </g>
   <g id="patch_29">
    <path d="M 38.53177 314.402747 
L 37.644354 316.459796 
L 38.795474 318.343225 
L 40.625724 319.479697 
L 42.443385 319.473958 
L 42.220113 314.61559 
L 38.53177 314.402747 
" clip-path="url(#p4172d17357)" style="fill: #ffffff"/>
   </g>
   <g id="patch_30">
    <path d="M 29.60043 309.178288 
L 22.300646 308.911236 
L 18.279436 309.935178 
L 14.570543 312.897005 
L 16.729601 315.40146 
L 17.04541 313.585325 
L 18.953316 312.031518 
L 21.439651 312.739742 
L 23.33073 317.120673 
L 23.696713 319.077269 
L 28.962635 318.799895 
L 31.920014 319.927206 
L 33.618198 317.683371 
L 35.811214 317.877983 
L 37.644354 316.459796 
L 38.53177 314.402747 
L 38.949217 311.062596 
L 38.436703 309.425346 
L 29.60043 309.178288 
" clip-path="url(#p4172d17357)" style="fill: #ffffff"/>
   </g>
   <g id="patch_31">
    <path d="M 49.156 320.317031 
L 48.784912 317.251553 
L 47.638562 318.143272 
L 46.015611 317.966589 
L 46.04536 319.011825 
L 46.04798 320.266368 
L 49.156 320.317031 
" clip-path="url(#p4172d17357)" style="fill: #ffffff"/>
   </g>
   <g id="patch_32">
    <path d="M 46.04798 320.266368 
L 46.04536 319.011825 
L 42.443385 319.473958 
L 40.625724 319.479697 
L 40.586086 320.390307 
L 41.039007 323.926719 
L 44.143504 324.143865 
L 45.836857 324.265816 
L 46.04798 320.266368 
" clip-path="url(#p4172d17357)" style="fill: #ffffff"/>
   </g>
   <g id="patch_33">
    <path d="M 37.644354 316.459796 
L 35.811214 317.877983 
L 33.618198 317.683371 
L 31.920014 319.927206 
L 33.470217 320.715852 
L 35.911091 320.080078 
L 40.586086 320.390307 
L 40.625724 319.479697 
L 38.795474 318.343225 
L 37.644354 316.459796 
" clip-path="url(#p4172d17357)" style="fill: #ffffff"/>
   </g>
   <g id="patch_34">
    <path d="M 49.156 320.317031 
L 46.04798 320.266368 
L 45.836857 324.265816 
L 48.881285 324.657075 
L 49.156 320.317031 
" clip-path="url(#p4172d17357)" style="fill: #ffffff"/>
   </g>
   <g id="patch_35">
    <path d="M 45.836857 324.265816 
L 44.143504 324.143865 
L 42.971974 326.909102 
L 43.170497 328.584192 
L 44.817019 329.736551 
L 48.215898 329.890909 
L 48.806568 325.355628 
L 48.881285 324.657075 
L 45.836857 324.265816 
" clip-path="url(#p4172d17357)" style="fill: #ffffff"/>
   </g>
   <g id="patch_36">
    <path d="M 44.143504 324.143865 
L 41.039007 323.926719 
L 40.051293 325.748737 
L 38.504119 325.670711 
L 38.297791 327.715459 
L 37.274099 328.799528 
L 43.170497 328.584192 
L 42.971974 326.909102 
L 44.143504 324.143865 
" clip-path="url(#p4172d17357)" style="fill: #ffffff"/>
   </g>
   <g id="patch_37">
    <path d="M 31.920014 319.927206 
L 28.962635 318.799895 
L 23.696713 319.077269 
L 24.313122 321.217619 
L 28.578628 321.735011 
L 31.635871 323.213897 
L 32.236499 324.558059 
L 31.274325 329.023034 
L 37.274099 328.799528 
L 38.297791 327.715459 
L 38.504119 325.670711 
L 40.051293 325.748737 
L 41.039007 323.926719 
L 40.586086 320.390307 
L 35.911091 320.080078 
L 33.470217 320.715852 
L 31.920014 319.927206 
" clip-path="url(#p4172d17357)" style="fill: #ffffff"/>
   </g>
   <g id="patch_38">
    <path d="M 53.624039 325.484525 
L 48.806568 325.355628 
L 48.215898 329.890909 
L 49.606391 329.231553 
L 54.884438 329.149209 
L 53.624039 325.484525 
" clip-path="url(#p4172d17357)" style="fill: #ffffff"/>
   </g>
   <g id="patch_39">
    <path d="M 52.827751 323.749891 
L 50.533276 319.820981 
L 49.156 320.317031 
L 48.881285 324.657075 
L 48.806568 325.355628 
L 53.624039 325.484525 
L 52.827751 323.749891 
" clip-path="url(#p4172d17357)" style="fill: #ffffff"/>
   </g>
   <g id="patch_40">
    <path d="M 53.150061 318.762067 
L 51.605346 318.790267 
L 50.533276 319.820981 
L 52.827751 323.749891 
L 54.651517 320.698873 
L 54.68167 318.834654 
L 53.150061 318.762067 
" clip-path="url(#p4172d17357)" style="fill: #ffffff"/>
   </g>
   <g id="patch_41">
    <path d="M 61.897479 323.782223 
L 59.029358 323.690734 
L 59.72675 326.803936 
L 60.462389 327.03116 
L 61.897479 323.782223 
" clip-path="url(#p4172d17357)" style="fill: #ffffff"/>
   </g>
   <g id="patch_42">
    <path d="M 57.626391 321.870731 
L 56.367937 321.829557 
L 59.029358 323.690734 
L 61.897479 323.782223 
L 62.196358 322.010837 
L 57.626391 321.870731 
" clip-path="url(#p4172d17357)" style="fill: #ffffff"/>
   </g>
   <g id="patch_43">
    <path d="M 62.287499 319.080172 
L 57.658806 318.945967 
L 57.626391 321.870731 
L 62.196358 322.010837 
L 62.287499 319.080172 
" clip-path="url(#p4172d17357)" style="fill: #ffffff"/>
   </g>
   <g id="patch_44">
    <path d="M 57.658806 318.945967 
L 54.68167 318.834654 
L 54.651517 320.698873 
L 56.367937 321.829557 
L 57.626391 321.870731 
L 57.658806 318.945967 
" clip-path="url(#p4172d17357)" style="fill: #ffffff"/>
   </g>
   <g id="patch_45">
    <path d="M 53.222024 315.891935 
L 50.904598 315.901656 
L 48.686892 316.70875 
L 48.784912 317.251553 
L 49.156 320.317031 
L 50.533276 319.820981 
L 51.605346 318.790267 
L 53.150061 318.762067 
L 53.222024 315.891935 
" clip-path="url(#p4172d17357)" style="fill: #ffffff"/>
   </g>
   <g id="patch_46">
    <path d="M 57.736448 316.038298 
L 53.222024 315.891935 
L 53.150061 318.762067 
L 54.68167 318.834654 
L 57.658806 318.945967 
L 57.736448 316.038298 
" clip-path="url(#p4172d17357)" style="fill: #ffffff"/>
   </g>
   <g id="patch_47">
    <path d="M 62.386572 316.171689 
L 57.736448 316.038298 
L 57.658806 318.945967 
L 62.287499 319.080172 
L 62.386572 316.171689 
" clip-path="url(#p4172d17357)" style="fill: #ffffff"/>
   </g>
   <g id="patch_48">
    <path d="M 51.245905 312.934851 
L 47.926162 312.800803 
L 48.686892 316.70875 
L 50.904598 315.901656 
L 53.222024 315.891935 
L 53.35161 312.993359 
L 51.245905 312.934851 
" clip-path="url(#p4172d17357)" style="fill: #ffffff"/>
   </g>
   <g id="patch_49">
    <path d="M 54.864678 313.042535 
L 53.35161 312.993359 
L 53.222024 315.891935 
L 57.736448 316.038298 
L 57.868311 313.129029 
L 54.864678 313.042535 
" clip-path="url(#p4172d17357)" style="fill: #ffffff"/>
   </g>
   <g id="patch_50">
    <path d="M 62.473716 313.270497 
L 57.868311 313.129029 
L 57.736448 316.038298 
L 62.386572 316.171689 
L 62.473716 313.270497 
" clip-path="url(#p4172d17357)" style="fill: #ffffff"/>
   </g>
   <g id="patch_51">
    <path d="M 50.508251 307.05672 
L 46.953023 308.092624 
L 47.926162 312.800803 
L 51.245905 312.934851 
L 50.568117 309.962094 
L 50.508251 307.05672 
" clip-path="url(#p4172d17357)" style="fill: #ffffff"/>
   </g>
   <g id="patch_52">
    <path d="M 53.404011 310.058316 
L 50.568117 309.962094 
L 51.245905 312.934851 
L 53.35161 312.993359 
L 54.864678 313.042535 
L 54.963224 310.118928 
L 53.404011 310.058316 
" clip-path="url(#p4172d17357)" style="fill: #ffffff"/>
   </g>
   <g id="patch_53">
    <path d="M 62.58308 310.685677 
L 60.953254 310.334029 
L 54.963224 310.118928 
L 54.864678 313.042535 
L 57.868311 313.129029 
L 62.473716 313.270497 
L 62.58308 310.685677 
" clip-path="url(#p4172d17357)" style="fill: #ffffff"/>
   </g>
   <g id="patch_54">
    <path d="M 50.603184 304.116535 
L 46.206095 304.247159 
L 46.953023 308.092624 
L 50.508251 307.05672 
L 50.603184 304.116535 
" clip-path="url(#p4172d17357)" style="fill: #ffffff"/>
   </g>
   <g id="patch_55">
    <path d="M 53.62463 304.209886 
L 50.603184 304.116535 
L 50.508251 307.05672 
L 50.568117 309.962094 
L 53.404011 310.058316 
L 53.520533 307.159657 
L 53.62463 304.209886 
" clip-path="url(#p4172d17357)" style="fill: #ffffff"/>
   </g>
   <g id="patch_56">
    <path d="M 56.653846 304.342986 
L 53.62463 304.209886 
L 53.520533 307.159657 
L 61.028574 307.423928 
L 62.656314 307.82238 
L 62.762453 304.486313 
L 56.653846 304.342986 
" clip-path="url(#p4172d17357)" style="fill: #ffffff"/>
   </g>
   <g id="patch_57">
    <path d="M 62.656314 307.82238 
L 61.028574 307.423928 
L 53.520533 307.159657 
L 53.404011 310.058316 
L 54.963224 310.118928 
L 60.953254 310.334029 
L 62.58308 310.685677 
L 62.656314 307.82238 
" clip-path="url(#p4172d17357)" style="fill: #ffffff"/>
   </g>
   <g id="patch_58">
    <path d="M 50.703291 301.188135 
L 45.600955 301.240969 
L 46.109148 303.712402 
L 46.206095 304.247159 
L 50.603184 304.116535 
L 50.703291 301.188135 
" clip-path="url(#p4172d17357)" style="fill: #ffffff"/>
   </g>
   <g id="patch_59">
    <path d="M 53.73665 301.270565 
L 50.703291 301.188135 
L 50.603184 304.116535 
L 53.62463 304.209886 
L 56.653846 304.342986 
L 56.771645 301.3835 
L 53.73665 301.270565 
" clip-path="url(#p4172d17357)" style="fill: #ffffff"/>
   </g>
   <g id="patch_60">
    <path d="M 62.855216 301.545537 
L 56.771645 301.3835 
L 56.653846 304.342986 
L 62.762453 304.486313 
L 62.855216 301.545537 
" clip-path="url(#p4172d17357)" style="fill: #ffffff"/>
   </g>
   <g id="patch_61">
    <path d="M 50.790502 298.255774 
L 47.999411 298.156012 
L 45.076783 298.678804 
L 45.600955 301.240969 
L 50.703291 301.188135 
L 50.790502 298.255774 
" clip-path="url(#p4172d17357)" style="fill: #ffffff"/>
   </g>
   <g id="patch_62">
    <path d="M 53.94749 295.41877 
L 50.894066 295.304757 
L 50.790502 298.255774 
L 50.703291 301.188135 
L 53.73665 301.270565 
L 53.834739 298.355701 
L 53.94749 295.41877 
" clip-path="url(#p4172d17357)" style="fill: #ffffff"/>
   </g>
   <g id="patch_63">
    <path d="M 62.954804 298.652971 
L 53.834739 298.355701 
L 53.73665 301.270565 
L 56.771645 301.3835 
L 62.855216 301.545537 
L 62.954804 298.652971 
" clip-path="url(#p4172d17357)" style="fill: #ffffff"/>
   </g>
   <g id="patch_64">
    <path d="M 58.456201 295.56474 
L 53.94749 295.41877 
L 53.834739 298.355701 
L 62.954804 298.652971 
L 63.052046 295.672936 
L 58.456201 295.56474 
" clip-path="url(#p4172d17357)" style="fill: #ffffff"/>
   </g>
   <g id="patch_65">
    <path d="M 49.616975 295.262926 
L 47.192652 295.254297 
L 44.530578 296.084181 
L 44.977884 298.298423 
L 45.076783 298.678804 
L 47.999411 298.156012 
L 50.790502 298.255774 
L 50.894066 295.304757 
L 49.616975 295.262926 
" clip-path="url(#p4172d17357)" style="fill: #ffffff"/>
   </g>
   <g id="patch_66">
    <path d="M 47.192652 295.254297 
L 46.555019 291.970249 
L 43.831073 292.483706 
L 44.530578 296.084181 
L 47.192652 295.254297 
" clip-path="url(#p4172d17357)" style="fill: #ffffff"/>
   </g>
   <g id="patch_67">
    <path d="M 49.616975 295.262926 
L 48.870457 291.588464 
L 46.555019 291.970249 
L 47.192652 295.254297 
L 49.616975 295.262926 
" clip-path="url(#p4172d17357)" style="fill: #ffffff"/>
   </g>
   <g id="patch_68">
    <path d="M 53.501377 292.603587 
L 51.902718 291.666811 
L 48.870457 291.588464 
L 49.616975 295.262926 
L 50.894066 295.304757 
L 53.94749 295.41877 
L 53.501377 292.603587 
" clip-path="url(#p4172d17357)" style="fill: #ffffff"/>
   </g>
   <g id="patch_69">
    <path d="M 59.075988 291.448367 
L 54.772863 291.862304 
L 53.501377 292.603587 
L 53.94749 295.41877 
L 58.456201 295.56474 
L 59.075988 291.448367 
" clip-path="url(#p4172d17357)" style="fill: #ffffff"/>
   </g>
   <g id="patch_70">
    <path d="M 63.185299 291.436883 
L 63.224878 290.4817 
L 59.075988 291.448367 
L 58.456201 295.56474 
L 63.052046 295.672936 
L 63.142758 292.746907 
L 63.185299 291.436883 
" clip-path="url(#p4172d17357)" style="fill: #ffffff"/>
   </g>
   <g id="patch_71">
    <path d="M 53.501377 292.603587 
L 52.733052 291.208565 
L 51.834283 287.408728 
L 48.218233 288.14554 
L 48.870457 291.588464 
L 51.902718 291.666811 
L 53.501377 292.603587 
" clip-path="url(#p4172d17357)" style="fill: #ffffff"/>
   </g>
   <g id="patch_72">
    <path d="M 55.78081 289.99863 
L 54.954028 288.74932 
L 55.164872 286.7 
L 51.834283 287.408728 
L 52.733052 291.208565 
L 53.501377 292.603587 
L 54.772863 291.862304 
L 55.78081 289.99863 
" clip-path="url(#p4172d17357)" style="fill: #ffffff"/>
   </g>
   <g id="patch_73">
    <path d="M 63.224878 290.4817 
L 63.330092 287.034079 
L 60.810216 288.168815 
L 60.043512 290.165843 
L 56.959825 290.701355 
L 55.78081 289.99863 
L 54.772863 291.862304 
L 59.075988 291.448367 
L 63.224878 290.4817 
" clip-path="url(#p4172d17357)" style="fill: #ffffff"/>
   </g>
   <g id="patch_74">
    <path d="M 59.829838 283.998749 
L 58.139764 283.980063 
L 58.14341 285.819248 
L 56.01727 289.381532 
L 56.959825 290.701355 
L 60.043512 290.165843 
L 60.810216 288.168815 
L 63.330092 287.034079 
L 63.342443 286.449348 
L 62.095014 285.878191 
L 59.831479 286.308153 
L 59.829838 283.998749 
" clip-path="url(#p4172d17357)" style="fill: #ffffff"/>
   </g>
   <g id="patch_75">
    <path d="M 49.478178 283.241866 
L 47.165529 282.739872 
L 42.189882 283.162502 
L 42.833043 287.448038 
L 43.831073 292.483706 
L 46.555019 291.970249 
L 48.870457 291.588464 
L 48.218233 288.14554 
L 49.76987 286.734776 
L 49.478178 283.241866 
" clip-path="url(#p4172d17357)" style="fill: #ffffff"/>
   </g>
   <g id="patch_76">
    <path d="M 54.09848 283.829717 
L 49.478178 283.241866 
L 49.76987 286.734776 
L 48.218233 288.14554 
L 51.834283 287.408728 
L 55.164872 286.7 
L 54.683169 284.508253 
L 55.982845 283.956467 
L 54.09848 283.829717 
" clip-path="url(#p4172d17357)" style="fill: #ffffff"/>
   </g>
   <g id="patch_77">
    <path d="M 58.139764 283.980063 
L 55.982845 283.956467 
L 54.683169 284.508253 
L 55.164872 286.7 
L 54.954028 288.74932 
L 55.78081 289.99863 
L 56.959825 290.701355 
L 56.01727 289.381532 
L 58.14341 285.819248 
L 58.139764 283.980063 
" clip-path="url(#p4172d17357)" style="fill: #ffffff"/>
   </g>
   <g id="patch_78">
    <path d="M 63.345243 286.33178 
L 63.425609 283.975657 
L 60.243102 284.001323 
L 59.829838 283.998749 
L 59.831479 286.308153 
L 62.095014 285.878191 
L 63.342443 286.449348 
L 63.345243 286.33178 
" clip-path="url(#p4172d17357)" style="fill: #ffffff"/>
   </g>
   <g id="patch_79">
    <path d="M 60.334783 280.577555 
L 54.197512 280.402858 
L 54.09848 283.829717 
L 55.982845 283.956467 
L 58.139764 283.980063 
L 59.829838 283.998749 
L 60.243102 284.001323 
L 60.334783 280.577555 
" clip-path="url(#p4172d17357)" style="fill: #ffffff"/>
   </g>
   <g id="patch_80">
    <path d="M 63.425609 283.975657 
L 63.678503 276.021564 
L 60.444206 276.991262 
L 60.334783 280.577555 
L 60.243102 284.001323 
L 63.425609 283.975657 
" clip-path="url(#p4172d17357)" style="fill: #ffffff"/>
   </g>
   <g id="patch_81">
    <path d="M 60.444206 276.991262 
L 58.025806 274.28927 
L 56.02129 275.272469 
L 54.379825 275.211753 
L 54.197512 280.402858 
L 60.334783 280.577555 
L 60.444206 276.991262 
" clip-path="url(#p4172d17357)" style="fill: #ffffff"/>
   </g>
   <g id="patch_82">
    <path d="M 54.379825 275.211753 
L 51.556348 275.328702 
L 51.380512 273.155502 
L 49.78245 273.099045 
L 44.318239 275.35091 
L 41.350086 273.911384 
L 41.65334 277.008619 
L 42.189882 283.162502 
L 47.165529 282.739872 
L 49.478178 283.241866 
L 54.09848 283.829717 
L 54.197512 280.402858 
L 54.379825 275.211753 
" clip-path="url(#p4172d17357)" style="fill: #ffffff"/>
   </g>
   <g id="patch_83">
    <path d="M 66.51663 283.954244 
L 66.347159 274.928956 
L 63.678503 276.021564 
L 63.425609 283.975657 
L 66.51663 283.954244 
" clip-path="url(#p4172d17357)" style="fill: #ffffff"/>
   </g>
   <g id="patch_84">
    <path d="M 76.259617 274.027561 
L 76.146569 268.492629 
L 75.240584 268.723662 
L 72.254918 272.186382 
L 71.300642 272.684975 
L 72.177485 273.957749 
L 74.085385 273.544263 
L 74.105584 275.863252 
L 76.281346 275.834048 
L 76.259617 274.027561 
" clip-path="url(#p4172d17357)" style="fill: #ffffff"/>
   </g>
   <g id="patch_85">
    <path d="M 74.105584 275.863252 
L 74.085385 273.544263 
L 72.295985 274.453915 
L 71.99865 275.498414 
L 72.124134 283.89176 
L 72.326377 283.887312 
L 74.215273 283.870609 
L 74.105584 275.863252 
" clip-path="url(#p4172d17357)" style="fill: #ffffff"/>
   </g>
   <g id="patch_86">
    <path d="M 74.085385 273.544263 
L 72.177485 273.957749 
L 71.300642 272.684975 
L 66.347159 274.928956 
L 66.51663 283.954244 
L 72.124134 283.89176 
L 71.99865 275.498414 
L 72.295985 274.453915 
L 74.085385 273.544263 
" clip-path="url(#p4172d17357)" style="fill: #ffffff"/>
   </g>
   <g id="patch_87">
    <path d="M 76.381505 283.849185 
L 76.281346 275.834048 
L 74.105584 275.863252 
L 74.215273 283.870609 
L 76.381505 283.849185 
" clip-path="url(#p4172d17357)" style="fill: #ffffff"/>
   </g>
   <g id="patch_88">
    <path d="M 72.40685 287.080483 
L 72.326377 283.887312 
L 72.124134 283.89176 
L 66.51663 283.954244 
L 63.425609 283.975657 
L 63.345243 286.33178 
L 67.379231 286.327401 
L 67.826445 287.146262 
L 72.40685 287.080483 
" clip-path="url(#p4172d17357)" style="fill: #ffffff"/>
   </g>
   <g id="patch_89">
    <path d="M 81.642658 286.932887 
L 81.598175 283.759127 
L 79.583293 283.79645 
L 76.381505 283.849185 
L 74.215273 283.870609 
L 72.326377 283.887312 
L 72.40685 287.080483 
L 76.968305 287.009595 
L 78.495067 286.996776 
L 81.642658 286.932887 
" clip-path="url(#p4172d17357)" style="fill: #ffffff"/>
   </g>
   <g id="patch_90">
    <path d="M 72.40685 287.080483 
L 67.826445 287.146262 
L 67.379231 286.327401 
L 63.345243 286.33178 
L 63.342443 286.449348 
L 63.330092 287.034079 
L 63.224878 290.4817 
L 63.185299 291.436883 
L 72.400538 289.13857 
L 72.40685 287.080483 
" clip-path="url(#p4172d17357)" style="fill: #ffffff"/>
   </g>
   <g id="patch_91">
    <path d="M 76.793828 293.183586 
L 76.968305 287.009595 
L 72.40685 287.080483 
L 72.400538 289.13857 
L 72.340004 293.036157 
L 73.803322 293.073357 
L 76.793828 293.183586 
" clip-path="url(#p4172d17357)" style="fill: #ffffff"/>
   </g>
   <g id="patch_92">
    <path d="M 72.340004 293.036157 
L 72.400538 289.13857 
L 63.185299 291.436883 
L 63.142758 292.746907 
L 72.340004 293.036157 
" clip-path="url(#p4172d17357)" style="fill: #ffffff"/>
   </g>
   <g id="patch_93">
    <path d="M 72.340004 293.036157 
L 63.142758 292.746907 
L 63.052046 295.672936 
L 66.183169 295.799939 
L 69.201117 295.893983 
L 72.201152 295.990798 
L 73.751585 296.034254 
L 73.803322 293.073357 
L 72.340004 293.036157 
" clip-path="url(#p4172d17357)" style="fill: #ffffff"/>
   </g>
   <g id="patch_94">
    <path d="M 81.40163 290.400749 
L 78.379734 290.315759 
L 78.495067 286.996776 
L 76.968305 287.009595 
L 76.793828 293.183586 
L 81.281437 293.319624 
L 81.40163 290.400749 
" clip-path="url(#p4172d17357)" style="fill: #ffffff"/>
   </g>
   <g id="patch_95">
    <path d="M 76.793828 293.183586 
L 73.803322 293.073357 
L 73.751585 296.034254 
L 75.195948 296.0685 
L 78.211023 296.190868 
L 81.198406 296.271 
L 81.281437 293.319624 
L 76.793828 293.183586 
" clip-path="url(#p4172d17357)" style="fill: #ffffff"/>
   </g>
   <g id="patch_96">
    <path d="M 87.297952 286.87313 
L 87.803791 285.064755 
L 85.299968 285.121758 
L 85.247701 283.698804 
L 82.828374 283.740866 
L 81.598175 283.759127 
L 81.642658 286.932887 
L 87.297952 286.87313 
" clip-path="url(#p4172d17357)" style="fill: #ffffff"/>
   </g>
   <g id="patch_97">
    <path d="M 94.475477 286.753305 
L 94.800127 283.549984 
L 92.425381 283.584168 
L 89.231382 283.639178 
L 85.247701 283.698804 
L 85.299968 285.121758 
L 87.803791 285.064755 
L 87.297952 286.87313 
L 87.207175 287.507046 
L 89.43132 287.872799 
L 94.475477 286.753305 
" clip-path="url(#p4172d17357)" style="fill: #ffffff"/>
   </g>
   <g id="patch_98">
    <path d="M 87.207175 287.507046 
L 87.297952 286.87313 
L 81.642658 286.932887 
L 78.495067 286.996776 
L 78.379734 290.315759 
L 81.40163 290.400749 
L 83.578607 290.46134 
L 83.235488 291.968591 
L 85.338445 292.406877 
L 86.718117 291.260489 
L 87.207175 287.507046 
" clip-path="url(#p4172d17357)" style="fill: #ffffff"/>
   </g>
   <g id="patch_99">
    <path d="M 83.235488 291.968591 
L 83.578607 290.46134 
L 81.40163 290.400749 
L 81.281437 293.319624 
L 81.198406 296.271 
L 84.298187 296.355557 
L 84.398046 293.441301 
L 83.235488 291.968591 
" clip-path="url(#p4172d17357)" style="fill: #ffffff"/>
   </g>
   <g id="patch_100">
    <path d="M 85.338445 292.406877 
L 83.235488 291.968591 
L 84.398046 293.441301 
L 84.298187 296.355557 
L 86.245778 296.412891 
L 86.32056 293.526982 
L 86.977972 293.266179 
L 85.338445 292.406877 
" clip-path="url(#p4172d17357)" style="fill: #ffffff"/>
   </g>
   <g id="patch_101">
    <path d="M 94.475477 286.753305 
L 89.43132 287.872799 
L 89.856068 292.165019 
L 94.475477 286.753305 
" clip-path="url(#p4172d17357)" style="fill: #ffffff"/>
   </g>
   <g id="patch_102">
    <path d="M 89.43132 287.872799 
L 87.207175 287.507046 
L 86.718117 291.260489 
L 85.338445 292.406877 
L 86.977972 293.266179 
L 89.222813 294.036944 
L 89.856068 292.165019 
L 89.43132 287.872799 
" clip-path="url(#p4172d17357)" style="fill: #ffffff"/>
   </g>
   <g id="patch_103">
    <path d="M 89.222813 294.036944 
L 86.977972 293.266179 
L 86.32056 293.526982 
L 86.245778 296.412891 
L 84.298187 296.355557 
L 81.198406 296.271 
L 78.211023 296.190868 
L 77.981537 302.047008 
L 80.671849 301.721465 
L 80.992566 300.495558 
L 84.602211 299.054803 
L 87.112514 297.404851 
L 88.250911 297.64809 
L 89.222813 294.036944 
" clip-path="url(#p4172d17357)" style="fill: #ffffff"/>
   </g>
   <g id="patch_104">
    <path d="M 88.250911 297.64809 
L 87.112514 297.404851 
L 84.602211 299.054803 
L 80.992566 300.495558 
L 80.671849 301.721465 
L 85.453257 299.830212 
L 88.037587 299.318222 
L 88.250911 297.64809 
" clip-path="url(#p4172d17357)" style="fill: #ffffff"/>
   </g>
   <g id="patch_105">
    <path d="M 78.211023 296.190868 
L 75.195948 296.0685 
L 74.885348 304.924205 
L 77.895358 304.988985 
L 77.981537 302.047008 
L 78.211023 296.190868 
" clip-path="url(#p4172d17357)" style="fill: #ffffff"/>
   </g>
   <g id="patch_106">
    <path d="M 73.751585 296.034254 
L 72.201152 295.990798 
L 71.998292 301.855189 
L 71.901894 304.780025 
L 74.885348 304.924205 
L 75.195948 296.0685 
L 73.751585 296.034254 
" clip-path="url(#p4172d17357)" style="fill: #ffffff"/>
   </g>
   <g id="patch_107">
    <path d="M 84.196609 305.422264 
L 84.437859 303.78974 
L 88.230708 301.100234 
L 88.037587 299.318222 
L 85.453257 299.830212 
L 80.671849 301.721465 
L 77.981537 302.047008 
L 77.895358 304.988985 
L 84.196609 305.422264 
" clip-path="url(#p4172d17357)" style="fill: #ffffff"/>
   </g>
   <g id="patch_108">
    <path d="M 66.183169 295.799939 
L 63.052046 295.672936 
L 62.954804 298.652971 
L 62.855216 301.545537 
L 65.990917 301.650098 
L 66.183169 295.799939 
" clip-path="url(#p4172d17357)" style="fill: #ffffff"/>
   </g>
   <g id="patch_109">
    <path d="M 69.201117 295.893983 
L 66.183169 295.799939 
L 65.990917 301.650098 
L 68.986931 301.73135 
L 69.201117 295.893983 
" clip-path="url(#p4172d17357)" style="fill: #ffffff"/>
   </g>
   <g id="patch_110">
    <path d="M 72.201152 295.990798 
L 69.201117 295.893983 
L 68.986931 301.73135 
L 71.998292 301.855189 
L 72.201152 295.990798 
" clip-path="url(#p4172d17357)" style="fill: #ffffff"/>
   </g>
   <g id="patch_111">
    <path d="M 65.990917 301.650098 
L 62.855216 301.545537 
L 62.762453 304.486313 
L 65.88847 304.574226 
L 68.879461 304.656895 
L 71.901894 304.780025 
L 71.998292 301.855189 
L 68.986931 301.73135 
L 65.990917 301.650098 
" clip-path="url(#p4172d17357)" style="fill: #ffffff"/>
   </g>
   <g id="patch_112">
    <path d="M 65.88847 304.574226 
L 62.762453 304.486313 
L 62.656314 307.82238 
L 65.79372 307.554692 
L 65.88847 304.574226 
" clip-path="url(#p4172d17357)" style="fill: #ffffff"/>
   </g>
   <g id="patch_113">
    <path d="M 68.879461 304.656895 
L 65.88847 304.574226 
L 65.79372 307.554692 
L 67.271979 307.590573 
L 68.778301 307.657769 
L 68.879461 304.656895 
" clip-path="url(#p4172d17357)" style="fill: #ffffff"/>
   </g>
   <g id="patch_114">
    <path d="M 71.901894 304.780025 
L 68.879461 304.656895 
L 68.778301 307.657769 
L 71.818478 307.753169 
L 71.901894 304.780025 
" clip-path="url(#p4172d17357)" style="fill: #ffffff"/>
   </g>
   <g id="patch_115">
    <path d="M 65.79372 307.554692 
L 62.656314 307.82238 
L 62.58308 310.685677 
L 65.683553 310.642881 
L 65.79372 307.554692 
" clip-path="url(#p4172d17357)" style="fill: #ffffff"/>
   </g>
   <g id="patch_116">
    <path d="M 67.271979 307.590573 
L 65.79372 307.554692 
L 65.683553 310.642881 
L 67.185733 310.694581 
L 67.271979 307.590573 
" clip-path="url(#p4172d17357)" style="fill: #ffffff"/>
   </g>
   <g id="patch_117">
    <path d="M 68.778301 307.657769 
L 67.271979 307.590573 
L 67.185733 310.694581 
L 68.699006 310.741988 
L 68.778301 307.657769 
" clip-path="url(#p4172d17357)" style="fill: #ffffff"/>
   </g>
   <g id="patch_118">
    <path d="M 71.818478 307.753169 
L 68.778301 307.657769 
L 68.699006 310.741988 
L 71.697588 310.892055 
L 71.818478 307.753169 
" clip-path="url(#p4172d17357)" style="fill: #ffffff"/>
   </g>
   <g id="patch_119">
    <path d="M 67.185733 310.694581 
L 65.683553 310.642881 
L 62.58308 310.685677 
L 62.473716 313.270497 
L 66.371307 313.393516 
L 67.10009 313.40789 
L 67.185733 310.694581 
" clip-path="url(#p4172d17357)" style="fill: #ffffff"/>
   </g>
   <g id="patch_120">
    <path d="M 68.699006 310.741988 
L 67.185733 310.694581 
L 67.10009 313.40789 
L 67.192301 315.932843 
L 68.208456 317.249502 
L 66.974991 320.516948 
L 73.645337 320.217598 
L 74.396537 317.999854 
L 75.945941 314.246108 
L 77.303223 311.388972 
L 74.707143 311.018416 
L 71.697588 310.892055 
L 68.699006 310.741988 
" clip-path="url(#p4172d17357)" style="fill: #ffffff"/>
   </g>
   <g id="patch_121">
    <path d="M 66.371307 313.393516 
L 62.473716 313.270497 
L 62.386572 316.171689 
L 66.26574 316.311549 
L 66.371307 313.393516 
" clip-path="url(#p4172d17357)" style="fill: #ffffff"/>
   </g>
   <g id="patch_122">
    <path d="M 67.10009 313.40789 
L 66.371307 313.393516 
L 66.26574 316.311549 
L 62.386572 316.171689 
L 62.287499 319.080172 
L 62.196358 322.010837 
L 61.897479 323.782223 
L 60.462389 327.03116 
L 61.524723 326.049341 
L 65.431009 325.608483 
L 63.414831 323.972092 
L 64.500542 321.938758 
L 66.320344 321.589276 
L 66.974991 320.516948 
L 68.208456 317.249502 
L 67.192301 315.932843 
L 67.10009 313.40789 
" clip-path="url(#p4172d17357)" style="fill: #ffffff"/>
   </g>
   <g id="patch_123">
    <path d="M 74.885348 304.924205 
L 71.901894 304.780025 
L 71.818478 307.753169 
L 74.803236 307.841767 
L 77.779008 307.92656 
L 77.895358 304.988985 
L 74.885348 304.924205 
" clip-path="url(#p4172d17357)" style="fill: #ffffff"/>
   </g>
   <g id="patch_124">
    <path d="M 84.196609 305.422264 
L 77.895358 304.988985 
L 77.779008 307.92656 
L 79.108697 307.976975 
L 82.569223 309.423538 
L 83.318592 305.963334 
L 84.196609 305.422264 
" clip-path="url(#p4172d17357)" style="fill: #ffffff"/>
   </g>
   <g id="patch_125">
    <path d="M 74.803236 307.841767 
L 71.818478 307.753169 
L 71.697588 310.892055 
L 74.707143 311.018416 
L 74.803236 307.841767 
" clip-path="url(#p4172d17357)" style="fill: #ffffff"/>
   </g>
   <g id="patch_126">
    <path d="M 77.779008 307.92656 
L 74.803236 307.841767 
L 74.707143 311.018416 
L 77.303223 311.388972 
L 77.66771 311.513031 
L 77.779008 307.92656 
" clip-path="url(#p4172d17357)" style="fill: #ffffff"/>
   </g>
   <g id="patch_127">
    <path d="M 82.569223 309.423538 
L 79.108697 307.976975 
L 77.779008 307.92656 
L 77.66771 311.513031 
L 81.153292 311.974217 
L 82.569223 309.423538 
" clip-path="url(#p4172d17357)" style="fill: #ffffff"/>
   </g>
   <g id="patch_128">
    <path d="M 77.66771 311.513031 
L 77.303223 311.388972 
L 75.945941 314.246108 
L 80.470247 315.754531 
L 82.177409 311.901955 
L 81.153292 311.974217 
L 77.66771 311.513031 
" clip-path="url(#p4172d17357)" style="fill: #ffffff"/>
   </g>
   <g id="patch_129">
    <path d="M 80.470247 315.754531 
L 75.945941 314.246108 
L 74.396537 317.999854 
L 78.880142 319.427804 
L 80.470247 315.754531 
" clip-path="url(#p4172d17357)" style="fill: #ffffff"/>
   </g>
   <g id="patch_130">
    <path d="M 78.880142 319.427804 
L 74.396537 317.999854 
L 73.645337 320.217598 
L 73.470427 320.806518 
L 77.955886 322.232713 
L 80.298741 322.88813 
L 78.880142 319.427804 
" clip-path="url(#p4172d17357)" style="fill: #ffffff"/>
   </g>
   <g id="patch_131">
    <path d="M 77.955886 322.232713 
L 73.470427 320.806518 
L 72.912545 322.735546 
L 77.33441 324.100715 
L 77.955886 322.232713 
" clip-path="url(#p4172d17357)" style="fill: #ffffff"/>
   </g>
   <g id="patch_132">
    <path d="M 77.33441 324.100715 
L 72.912545 322.735546 
L 72.86128 324.777965 
L 76.740887 325.984144 
L 77.33441 324.100715 
" clip-path="url(#p4172d17357)" style="fill: #ffffff"/>
   </g>
   <g id="patch_133">
    <path d="M 80.298741 322.88813 
L 77.955886 322.232713 
L 77.33441 324.100715 
L 76.740887 325.984144 
L 82.57492 327.814806 
L 83.029909 324.859337 
L 80.822433 324.157955 
L 80.298741 322.88813 
" clip-path="url(#p4172d17357)" style="fill: #ffffff"/>
   </g>
   <g id="patch_134">
    <path d="M 79.437423 270.292666 
L 79.100746 268.026075 
L 76.146569 268.492629 
L 76.259617 274.027561 
L 79.443974 273.967795 
L 79.437423 270.292666 
" clip-path="url(#p4172d17357)" style="fill: #ffffff"/>
   </g>
   <g id="patch_135">
    <path d="M 83.579913 273.157128 
L 80.996249 269.546028 
L 79.437423 270.292666 
L 79.443974 273.967795 
L 82.590033 273.931751 
L 83.579913 273.157128 
" clip-path="url(#p4172d17357)" style="fill: #ffffff"/>
   </g>
   <g id="patch_136">
    <path d="M 79.583293 283.79645 
L 79.443974 273.967795 
L 76.259617 274.027561 
L 76.281346 275.834048 
L 76.381505 283.849185 
L 79.583293 283.79645 
" clip-path="url(#p4172d17357)" style="fill: #ffffff"/>
   </g>
   <g id="patch_137">
    <path d="M 82.733786 278.788167 
L 82.590033 273.931751 
L 79.443974 273.967795 
L 79.583293 283.79645 
L 81.598175 283.759127 
L 82.828374 283.740866 
L 82.733786 278.788167 
" clip-path="url(#p4172d17357)" style="fill: #ffffff"/>
   </g>
   <g id="patch_138">
    <path d="M 89.231382 283.639178 
L 89.168196 278.701281 
L 82.733786 278.788167 
L 82.828374 283.740866 
L 85.247701 283.698804 
L 89.231382 283.639178 
" clip-path="url(#p4172d17357)" style="fill: #ffffff"/>
   </g>
   <g id="patch_139">
    <path d="M 89.091756 273.880147 
L 88.373069 273.877761 
L 82.590033 273.931751 
L 82.733786 278.788167 
L 89.168196 278.701281 
L 89.091756 273.880147 
" clip-path="url(#p4172d17357)" style="fill: #ffffff"/>
   </g>
   <g id="patch_140">
    <path d="M 92.425381 283.584168 
L 92.290657 273.840367 
L 89.091756 273.880147 
L 89.168196 278.701281 
L 89.231382 283.639178 
L 92.425381 283.584168 
" clip-path="url(#p4172d17357)" style="fill: #ffffff"/>
   </g>
   <g id="patch_141">
    <path d="M 96.209812 274.093706 
L 92.290657 273.840367 
L 92.425381 283.584168 
L 94.800127 283.549984 
L 95.944593 282.7175 
L 96.885524 280.452548 
L 96.95101 277.003286 
L 96.209812 274.093706 
" clip-path="url(#p4172d17357)" style="fill: #ffffff"/>
   </g>
   <g id="patch_142">
    <path d="M 91.034867 271.495019 
L 88.904574 268.946524 
L 87.680603 269.925915 
L 85.299995 271.801575 
L 83.579913 273.157128 
L 82.590033 273.931751 
L 88.373069 273.877761 
L 91.034867 271.495019 
" clip-path="url(#p4172d17357)" style="fill: #ffffff"/>
   </g>
   <g id="patch_143">
    <path d="M 97.573392 271.840639 
L 94.49369 268.829045 
L 91.034867 271.495019 
L 88.373069 273.877761 
L 89.091756 273.880147 
L 92.290657 273.840367 
L 96.209812 274.093706 
L 97.573392 271.840639 
" clip-path="url(#p4172d17357)" style="fill: #ffffff"/>
   </g>
   <g id="patch_144">
    <path d="M 84.083547 268.146586 
L 81.908766 265.919915 
L 79.100746 268.026075 
L 79.437423 270.292666 
L 80.996249 269.546028 
L 82.815176 268.616366 
L 84.083547 268.146586 
" clip-path="url(#p4172d17357)" style="fill: #ffffff"/>
   </g>
   <g id="patch_145">
    <path d="M 85.299995 271.801575 
L 82.815176 268.616366 
L 80.996249 269.546028 
L 83.579913 273.157128 
L 85.299995 271.801575 
" clip-path="url(#p4172d17357)" style="fill: #ffffff"/>
   </g>
   <g id="patch_146">
    <path d="M 87.680603 269.925915 
L 85.45593 267.270272 
L 84.083547 268.146586 
L 82.815176 268.616366 
L 85.299995 271.801575 
L 87.680603 269.925915 
" clip-path="url(#p4172d17357)" style="fill: #ffffff"/>
   </g>
   <g id="patch_147">
    <path d="M 86.659028 266.215528 
L 84.40129 263.580714 
L 81.908766 265.919915 
L 84.083547 268.146586 
L 85.45593 267.270272 
L 86.659028 266.215528 
" clip-path="url(#p4172d17357)" style="fill: #ffffff"/>
   </g>
   <g id="patch_148">
    <path d="M 91.084468 267.262712 
L 90.05235 266.030334 
L 87.906316 267.718392 
L 86.659028 266.215528 
L 85.45593 267.270272 
L 87.680603 269.925915 
L 88.904574 268.946524 
L 91.084468 267.262712 
" clip-path="url(#p4172d17357)" style="fill: #ffffff"/>
   </g>
   <g id="patch_149">
    <path d="M 94.49369 268.829045 
L 92.404037 266.243841 
L 91.084468 267.262712 
L 88.904574 268.946524 
L 91.034867 271.495019 
L 94.49369 268.829045 
" clip-path="url(#p4172d17357)" style="fill: #ffffff"/>
   </g>
   <g id="patch_150">
    <path d="M 88.492132 264.156064 
L 86.962147 264.905192 
L 85.124001 262.916314 
L 84.40129 263.580714 
L 86.659028 266.215528 
L 87.906316 267.718392 
L 90.05235 266.030334 
L 88.492132 264.156064 
" clip-path="url(#p4172d17357)" style="fill: #ffffff"/>
   </g>
   <g id="patch_151">
    <path d="M 91.245397 261.935429 
L 89.685977 259.908427 
L 87.505686 261.034457 
L 85.124001 262.916314 
L 86.962147 264.905192 
L 88.492132 264.156064 
L 91.245397 261.935429 
" clip-path="url(#p4172d17357)" style="fill: #ffffff"/>
   </g>
   <g id="patch_152">
    <path d="M 91.835383 262.622305 
L 91.245397 261.935429 
L 88.492132 264.156064 
L 90.05235 266.030334 
L 91.084468 267.262712 
L 92.404037 266.243841 
L 93.836898 265.109347 
L 93.888913 265.065854 
L 91.835383 262.622305 
" clip-path="url(#p4172d17357)" style="fill: #ffffff"/>
   </g>
   <g id="patch_153">
    <path d="M 97.613986 267.659428 
L 96.720743 268.386572 
L 93.836898 265.109347 
L 92.404037 266.243841 
L 94.49369 268.829045 
L 97.573392 271.840639 
L 97.611347 268.302262 
L 97.613986 267.659428 
" clip-path="url(#p4172d17357)" style="fill: #ffffff"/>
   </g>
   <g id="patch_154">
    <path d="M 94.823199 260.714864 
L 93.469399 258.794762 
L 89.685977 259.908427 
L 91.245397 261.935429 
L 91.835383 262.622305 
L 94.823199 260.714864 
" clip-path="url(#p4172d17357)" style="fill: #ffffff"/>
   </g>
   <g id="patch_155">
    <path d="M 96.668761 262.834294 
L 94.823199 260.714864 
L 91.835383 262.622305 
L 93.888913 265.065854 
L 96.668761 262.834294 
" clip-path="url(#p4172d17357)" style="fill: #ffffff"/>
   </g>
   <g id="patch_156">
    <path d="M 97.613986 267.659428 
L 97.704439 262.093772 
L 96.668761 262.834294 
L 93.888913 265.065854 
L 93.836898 265.109347 
L 96.720743 268.386572 
L 97.613986 267.659428 
" clip-path="url(#p4172d17357)" style="fill: #ffffff"/>
   </g>
   <g id="patch_157">
    <path d="M 97.772401 258.190591 
L 93.469399 258.794762 
L 94.823199 260.714864 
L 96.668761 262.834294 
L 97.704439 262.093772 
L 97.711412 261.773258 
L 97.772417 258.24981 
L 97.772401 258.190591 
" clip-path="url(#p4172d17357)" style="fill: #ffffff"/>
   </g>
   <g id="patch_158">
    <path d="M 101.510921 261.832796 
L 98.761896 262.555595 
L 97.711412 261.773258 
L 97.704439 262.093772 
L 97.613986 267.659428 
L 97.611347 268.302262 
L 98.393117 268.069978 
L 102.186488 263.866914 
L 101.510921 261.832796 
" clip-path="url(#p4172d17357)" style="fill: #ffffff"/>
   </g>
   <g id="patch_159">
    <path d="M 101.510921 261.832796 
L 99.987359 258.204299 
L 97.772417 258.24981 
L 97.711412 261.773258 
L 98.761896 262.555595 
L 101.510921 261.832796 
" clip-path="url(#p4172d17357)" style="fill: #ffffff"/>
   </g>
   <g id="patch_160">
    <path d="M 107.155175 247.621742 
L 106.236121 247.101269 
L 103.554715 247.865481 
L 101.522409 249.648747 
L 100.136087 251.719661 
L 98.452564 255.758976 
L 97.825078 255.862731 
L 97.772401 258.190591 
L 97.772417 258.24981 
L 99.987359 258.204299 
L 101.510921 261.832796 
L 102.186488 263.866914 
L 103.020971 262.972987 
L 108.447725 253.009656 
L 109.140373 255.026543 
L 111.185473 254.634373 
L 110.785846 250.688644 
L 109.565136 248.82371 
L 107.537503 249.072148 
L 107.155175 247.621742 
" clip-path="url(#p4172d17357)" style="fill: #ffffff"/>
   </g>
   <g id="patch_161">
    <path d="M 115.506356 248.110849 
L 112.158488 244.482088 
L 109.732964 242.964732 
L 108.825273 244.296539 
L 106.468257 244.288278 
L 107.155175 247.621742 
L 107.537503 249.072148 
L 109.565136 248.82371 
L 110.785846 250.688644 
L 113.914234 249.738913 
L 115.506356 248.110849 
" clip-path="url(#p4172d17357)" style="fill: #ffffff"/>
   </g>
   <g id="patch_162">
    <path d="M 110.621404 239.66609 
L 106.850387 237.405307 
L 104.680732 237.162434 
L 103.96827 236.063022 
L 104.186201 229.447674 
L 102.119291 225.977929 
L 99.548456 225.56746 
L 96.302414 226.789945 
L 94.678113 230.695306 
L 94.144827 233.655139 
L 95.318343 235.06881 
L 98.288583 236.270719 
L 98.206094 240.012604 
L 102.524026 240.001776 
L 104.806287 240.696605 
L 105.300276 243.46862 
L 106.468257 244.288278 
L 108.825273 244.296539 
L 109.732964 242.964732 
L 112.158488 244.482088 
L 115.506356 248.110849 
L 117.768789 246.82108 
L 116.662905 244.436479 
L 114.023025 241.409542 
L 110.621404 239.66609 
" clip-path="url(#p4172d17357)" style="fill: #ffffff"/>
   </g>
   <g id="patch_163">
    <path d="M 106.468257 244.288278 
L 105.300276 243.46862 
L 104.806287 240.696605 
L 102.524026 240.001776 
L 98.206094 240.012604 
L 98.288583 236.270719 
L 95.318343 235.06881 
L 94.144827 233.655139 
L 93.012416 235.662033 
L 93.58534 238.405796 
L 91.012437 239.554313 
L 89.944746 244.756943 
L 90.38615 246.483119 
L 90.285994 250.07275 
L 94.246029 252.242116 
L 97.825078 255.862731 
L 98.452564 255.758976 
L 100.136087 251.719661 
L 101.522409 249.648747 
L 103.554715 247.865481 
L 106.236121 247.101269 
L 107.155175 247.621742 
L 106.468257 244.288278 
" clip-path="url(#p4172d17357)" style="fill: #ffffff"/>
   </g>
   <g id="patch_164">
    <path d="M 119.196605 230.121469 
L 114.30169 225.746444 
L 113.057734 225.196105 
L 110.289515 222.777449 
L 105.97845 220.91176 
L 102.694268 221.768961 
L 99.548456 225.56746 
L 102.119291 225.977929 
L 104.186201 229.447674 
L 103.96827 236.063022 
L 104.680732 237.162434 
L 106.850387 237.405307 
L 110.621404 239.66609 
L 111.526964 238.714879 
L 114.918618 237.294712 
L 117.439028 233.700654 
L 118.66181 233.06088 
L 119.196605 230.121469 
" clip-path="url(#p4172d17357)" style="fill: #ffffff"/>
   </g>
   <g id="patch_165">
    <path d="M 136.062045 225.322901 
L 134.329912 223.713916 
L 132.491822 224.283318 
L 129.266334 223.917155 
L 128.294692 225.091912 
L 125.658076 224.493817 
L 126.07569 226.13403 
L 124.593558 227.332243 
L 123.361883 230.000445 
L 121.622539 231.432491 
L 119.196605 230.121469 
L 118.66181 233.06088 
L 117.439028 233.700654 
L 114.918618 237.294712 
L 111.526964 238.714879 
L 110.621404 239.66609 
L 114.023025 241.409542 
L 116.662905 244.436479 
L 117.768789 246.82108 
L 118.105962 245.903703 
L 121.466746 242.302795 
L 123.513528 243.656725 
L 124.817757 241.204846 
L 124.02956 239.735766 
L 129.112428 234.786642 
L 131.149701 231.754245 
L 136.062045 225.322901 
" clip-path="url(#p4172d17357)" style="fill: #ffffff"/>
   </g>
   <g id="patch_166">
    <path d="M 136.062045 225.322901 
L 139.535003 223.968396 
L 141.44909 222.376244 
L 144.354294 221.13382 
L 143.792377 219.132054 
L 144.177468 214.208304 
L 141.670828 214.289689 
L 141.600951 212.90491 
L 140.10462 212.283562 
L 137.725603 212.732408 
L 135.382855 211.073823 
L 133.884031 210.850988 
L 131.139812 211.542791 
L 128.958215 210.839902 
L 124.324197 215.115976 
L 124.194567 216.71234 
L 125.536211 218.703516 
L 126.44954 222.120149 
L 125.658076 224.493817 
L 128.294692 225.091912 
L 129.266334 223.917155 
L 132.491822 224.283318 
L 134.329912 223.713916 
L 136.062045 225.322901 
" clip-path="url(#p4172d17357)" style="fill: #ffffff"/>
   </g>
   <g id="patch_167">
    <path d="M 104.657065 135.844705 
L 103.443614 136.010909 
L 101.268323 147.015801 
L 101.722801 149.1444 
L 98.522627 151.428781 
L 98.933814 153.467193 
L 98.067588 155.108942 
L 98.280789 158.228484 
L 101.194178 161.636567 
L 97.454842 164.39249 
L 104.964766 167.397408 
L 106.530771 167.276612 
L 109.833956 168.424919 
L 113.167272 168.616109 
L 115.431017 169.179288 
L 116.095613 171.483906 
L 117.122825 171.304786 
L 115.970021 165.955475 
L 116.167213 163.845404 
L 115.288438 163.101426 
L 113.525878 159.745679 
L 110.762001 159.079726 
L 111.753497 156.40329 
L 110.441889 156.323242 
L 109.459194 154.387225 
L 112.585941 154.202294 
L 111.592473 150.664773 
L 111.55713 148.497412 
L 110.651886 146.901686 
L 107.102711 143.778128 
L 109.380901 139.746892 
L 108.79751 137.886211 
L 106.149509 137.872226 
L 104.657065 135.844705 
" clip-path="url(#p4172d17357)" style="fill: #ffffff"/>
   </g>
   <g id="patch_168">
    <path d="M 139.249414 142.340132 
L 137.977511 141.318449 
L 138.140592 139.804343 
L 136.462702 136.290757 
L 132.661509 139.261225 
L 126.56813 139.298282 
L 124.590441 142.173758 
L 122.43159 142.840186 
L 120.385015 141.774707 
L 118.302016 141.829801 
L 117.692221 142.997357 
L 113.161062 140.039455 
L 112.434387 138.492965 
L 110.501994 137.679597 
L 108.79751 137.886211 
L 109.380901 139.746892 
L 107.102711 143.778128 
L 110.651886 146.901686 
L 111.55713 148.497412 
L 111.592473 150.664773 
L 112.585941 154.202294 
L 109.459194 154.387225 
L 110.441889 156.323242 
L 111.753497 156.40329 
L 110.762001 159.079726 
L 113.525878 159.745679 
L 115.288438 163.101426 
L 116.167213 163.845404 
L 115.970021 165.955475 
L 117.122825 171.304786 
L 117.664416 173.569018 
L 120.722919 177.502428 
L 122.994631 175.393724 
L 123.486603 173.738399 
L 127.647362 174.752554 
L 126.538404 170.924224 
L 127.415486 168.942282 
L 127.944008 165.082437 
L 127.227193 164.226745 
L 125.502481 159.776891 
L 127.038084 158.964403 
L 127.143708 154.121975 
L 130.182412 153.534275 
L 133.982374 153.440935 
L 135.624588 151.04697 
L 136.967932 150.272839 
L 136.976088 147.107695 
L 138.617712 145.153035 
L 139.249414 142.340132 
" clip-path="url(#p4172d17357)" style="fill: #ffffff"/>
   </g>
   <g id="patch_169">
    <path d="M 141.360283 118.531674 
L 140.712365 116.602254 
L 139.218043 117.991054 
L 137.250377 118.183223 
L 137.133508 116.121553 
L 132.78143 116.788042 
L 130.505307 118.293117 
L 129.964125 116.367327 
L 127.193536 117.726719 
L 125.475543 119.448253 
L 123.185325 114.544517 
L 120.970163 111.865411 
L 117.557321 109.525102 
L 115.39502 109.045431 
L 116.356033 104.452123 
L 115.181876 103.374727 
L 114.83375 101.013973 
L 113.053774 100.440567 
L 111.691745 98.402908 
L 111.229588 104.115048 
L 109.256531 105.006673 
L 109.284555 106.713216 
L 108.309154 111.636402 
L 106.027803 115.389675 
L 106.947727 116.965251 
L 106.480147 119.657641 
L 104.35016 119.663342 
L 104.899078 121.141878 
L 107.380404 132.208717 
L 105.61701 132.819262 
L 104.657065 135.844705 
L 106.149509 137.872226 
L 108.79751 137.886211 
L 110.501994 137.679597 
L 112.434387 138.492965 
L 113.161062 140.039455 
L 117.692221 142.997357 
L 118.302016 141.829801 
L 120.385015 141.774707 
L 122.43159 142.840186 
L 124.590441 142.173758 
L 126.56813 139.298282 
L 132.661509 139.261225 
L 136.462702 136.290757 
L 138.140592 139.804343 
L 137.977511 141.318449 
L 139.249414 142.340132 
L 145.817715 143.90973 
L 147.313163 142.332984 
L 150.487208 140.590056 
L 146.769364 137.424483 
L 146.836122 134.57056 
L 151.828887 134.649043 
L 154.846716 133.806001 
L 155.8278 135.72183 
L 157.696765 134.971041 
L 157.191056 132.633191 
L 154.205435 131.145182 
L 154.123359 130.228075 
L 154.097119 128.8886 
L 151.684435 128.546794 
L 150.299802 131.566379 
L 146.360193 131.242966 
L 142.942641 132.805978 
L 141.662651 130.223379 
L 141.971878 129.067696 
L 140.277463 127.49756 
L 138.846035 127.731442 
L 137.362354 126.368207 
L 138.634048 123.031695 
L 137.897785 120.925647 
L 139.24436 119.102293 
L 141.360283 118.531674 
" clip-path="url(#p4172d17357)" style="fill: #ffffff"/>
   </g>
   <g id="patch_170">
    <path d="M 169.635968 100.456549 
L 161.580474 100.434402 
L 160.625569 99.933094 
L 157.513625 99.941331 
L 156.04804 99.417288 
L 154.611939 100.250801 
L 151.475663 103.637453 
L 150.939037 102.783429 
L 148.05471 101.889208 
L 145.534995 103.422243 
L 145.879959 104.130125 
L 143.303182 106.19825 
L 141.388489 104.467789 
L 139.202172 106.276327 
L 138.031199 104.683399 
L 136.424248 105.464208 
L 133.014574 103.321359 
L 130.240405 102.950544 
L 129.572577 101.463868 
L 126.005811 100.40063 
L 125.172009 98.75788 
L 122.369702 101.204647 
L 119.592454 97.633286 
L 115.876092 96.526506 
L 113.915444 97.805951 
L 111.111984 97.954222 
L 111.691745 98.402908 
L 113.053774 100.440567 
L 114.83375 101.013973 
L 115.181876 103.374727 
L 116.356033 104.452123 
L 115.39502 109.045431 
L 117.557321 109.525102 
L 120.970163 111.865411 
L 123.185325 114.544517 
L 125.475543 119.448253 
L 127.193536 117.726719 
L 129.964125 116.367327 
L 130.505307 118.293117 
L 132.78143 116.788042 
L 137.133508 116.121553 
L 137.250377 118.183223 
L 139.218043 117.991054 
L 140.712365 116.602254 
L 141.360283 118.531674 
L 142.522514 118.295813 
L 145.433513 119.252721 
L 150.31839 119.268692 
L 153.973224 122.95378 
L 158.384051 121.865437 
L 159.871087 120.028295 
L 160.09001 112.675115 
L 163.19664 113.123804 
L 164.699134 112.855149 
L 165.674488 108.840763 
L 169.697358 101.47608 
L 169.635968 100.456549 
" clip-path="url(#p4172d17357)" style="fill: #ffffff"/>
   </g>
   <g id="patch_171">
    <path d="M 153.973224 122.95378 
L 150.31839 119.268692 
L 145.433513 119.252721 
L 142.522514 118.295813 
L 141.360283 118.531674 
L 139.24436 119.102293 
L 137.897785 120.925647 
L 138.634048 123.031695 
L 137.362354 126.368207 
L 138.846035 127.731442 
L 140.277463 127.49756 
L 141.971878 129.067696 
L 141.662651 130.223379 
L 142.942641 132.805978 
L 146.360193 131.242966 
L 150.299802 131.566379 
L 151.684435 128.546794 
L 154.097119 128.8886 
L 153.548183 128.028054 
L 153.973224 122.95378 
" clip-path="url(#p4172d17357)" style="fill: #ffffff"/>
   </g>
   <g id="patch_172">
    <path d="M 177.892769 109.829863 
L 169.892334 109.888915 
L 169.697358 101.47608 
L 165.674488 108.840763 
L 164.699134 112.855149 
L 163.19664 113.123804 
L 160.09001 112.675115 
L 159.871087 120.028295 
L 158.384051 121.865437 
L 153.973224 122.95378 
L 153.548183 128.028054 
L 154.097119 128.8886 
L 154.123359 130.228075 
L 156.225995 129.462637 
L 156.194415 127.518412 
L 155.072226 126.641161 
L 155.714526 124.389721 
L 158.925146 124.434968 
L 162.559488 125.149659 
L 162.153852 126.812112 
L 163.722791 127.272183 
L 164.246102 124.792881 
L 165.858442 121.416289 
L 168.056311 119.082796 
L 171.046989 118.634993 
L 176.259104 118.835116 
L 176.190778 115.561413 
L 179.443114 115.528014 
L 179.032516 111.249864 
L 177.892769 109.829863 
" clip-path="url(#p4172d17357)" style="fill: #ffffff"/>
   </g>
   <g id="patch_173">
    <path d="M 159.979936 34.874844 
L 159.319074 34.540901 
L 150.974571 34.633003 
L 151.202165 35.582822 
L 154.196837 36.224991 
L 154.098214 37.857247 
L 152.84291 38.418809 
L 146.917004 38.658688 
L 146.201107 39.732106 
L 146.86381 42.17131 
L 150.706993 43.242383 
L 151.740065 42.905513 
L 152.691191 44.76979 
L 150.501658 50.571432 
L 149.643917 54.935895 
L 147.886587 58.257544 
L 147.221624 62.291208 
L 136.493351 66.8778 
L 132.368849 68.067516 
L 126.268811 70.577318 
L 115.580802 75.441431 
L 115.77057 76.854174 
L 114.384776 80.338629 
L 111.046448 80.162401 
L 105.811835 81.828163 
L 102.323255 82.425169 
L 100.222012 81.328969 
L 98.751973 82.198265 
L 100.924284 88.241458 
L 102.339823 89.355826 
L 103.030493 92.035736 
L 107.005764 93.862141 
L 107.3452 95.474345 
L 111.111984 97.954222 
L 113.915444 97.805951 
L 115.876092 96.526506 
L 119.592454 97.633286 
L 122.369702 101.204647 
L 125.172009 98.75788 
L 126.005811 100.40063 
L 129.572577 101.463868 
L 130.240405 102.950544 
L 133.014574 103.321359 
L 136.424248 105.464208 
L 138.031199 104.683399 
L 139.202172 106.276327 
L 141.388489 104.467789 
L 143.303182 106.19825 
L 145.879959 104.130125 
L 145.534995 103.422243 
L 148.05471 101.889208 
L 150.939037 102.783429 
L 151.475663 103.637453 
L 154.611939 100.250801 
L 156.04804 99.417288 
L 157.513625 99.941331 
L 160.625569 99.933094 
L 161.580474 100.434402 
L 169.635968 100.456549 
L 167.036314 90.931056 
L 162.862239 80.527972 
L 160.014325 76.961313 
L 160.033817 72.094208 
L 160.756199 71.984314 
L 167.50195 66.345795 
L 167.072844 64.553421 
L 164.901104 64.92892 
L 163.867875 61.875836 
L 165.484083 60.332067 
L 164.780943 59.007775 
L 161.953805 58.725669 
L 163.228229 55.511849 
L 160.094828 51.752831 
L 159.979936 34.874844 
" clip-path="url(#p4172d17357)" style="fill: #ffffff"/>
   </g>
   <g id="patch_174">
    <path d="M 189.192051 105.960061 
L 189.220289 104.717859 
L 193.864327 104.468771 
L 191.233227 91.220088 
L 188.525152 78.586885 
L 188.392707 76.961918 
L 185.084155 77.379289 
L 183.357486 78.183838 
L 180.777376 81.560961 
L 172.392532 96.759337 
L 169.697358 101.47608 
L 169.892334 109.888915 
L 177.892769 109.829863 
L 179.948708 107.715799 
L 182.409952 106.083115 
L 189.192051 105.960061 
" clip-path="url(#p4172d17357)" style="fill: #ffffff"/>
   </g>
   <g id="patch_175">
    <path d="M 180.777376 81.560961 
L 178.373273 80.901506 
L 178.375952 79.002481 
L 176.888049 77.360199 
L 175.620016 77.891204 
L 172.733418 77.011121 
L 171.876711 74.286441 
L 173.192732 71.037138 
L 170.805571 70.120309 
L 171.059751 67.846054 
L 168.484314 67.795011 
L 167.50195 66.345795 
L 160.756199 71.984314 
L 160.033817 72.094208 
L 160.014325 76.961313 
L 162.862239 80.527972 
L 167.036314 90.931056 
L 169.635968 100.456549 
L 169.697358 101.47608 
L 172.392532 96.759337 
L 180.777376 81.560961 
" clip-path="url(#p4172d17357)" style="fill: #ffffff"/>
   </g>
   <g id="patch_176">
    <path d="M 208.236428 57.002435 
L 208.675655 56.101866 
L 208.156375 53.354074 
L 203.863924 52.522198 
L 201.841637 53.582248 
L 198.665147 53.453164 
L 197.867076 55.839389 
L 198.080574 59.61458 
L 195.295193 62.412987 
L 196.786674 63.489011 
L 193.714676 67.497252 
L 190.459833 65.352748 
L 188.557153 68.227472 
L 188.392707 76.961918 
L 208.123221 75.362326 
L 208.064318 57.975036 
L 208.236428 57.002435 
" clip-path="url(#p4172d17357)" style="fill: #ffffff"/>
   </g>
   <g id="patch_177">
    <path d="M 198.665147 53.453164 
L 195.617936 53.097947 
L 193.222037 50.859732 
L 191.345111 50.746663 
L 189.352095 48.135042 
L 186.069703 48.637461 
L 184.111208 49.836551 
L 183.576238 47.211913 
L 180.706965 42.785465 
L 177.987482 43.032134 
L 176.976922 42.281067 
L 176.873683 38.163082 
L 174.381388 36.140671 
L 172.163514 35.612184 
L 169.037927 35.719966 
L 166.592536 35.279194 
L 160.843726 35.159947 
L 159.979936 34.874844 
L 160.094828 51.752831 
L 163.228229 55.511849 
L 161.953805 58.725669 
L 164.780943 59.007775 
L 165.484083 60.332067 
L 163.867875 61.875836 
L 164.901104 64.92892 
L 167.072844 64.553421 
L 167.50195 66.345795 
L 168.484314 67.795011 
L 171.059751 67.846054 
L 170.805571 70.120309 
L 173.192732 71.037138 
L 171.876711 74.286441 
L 172.733418 77.011121 
L 175.620016 77.891204 
L 176.888049 77.360199 
L 178.375952 79.002481 
L 178.373273 80.901506 
L 180.777376 81.560961 
L 183.357486 78.183838 
L 185.084155 77.379289 
L 188.392707 76.961918 
L 188.557153 68.227472 
L 190.459833 65.352748 
L 193.714676 67.497252 
L 196.786674 63.489011 
L 195.295193 62.412987 
L 198.080574 59.61458 
L 197.867076 55.839389 
L 198.665147 53.453164 
" clip-path="url(#p4172d17357)" style="fill: #ffffff"/>
   </g>
   <g id="patch_178">
    <path d="M 227.565214 36.105646 
L 227.516377 34.473835 
L 228.402143 29.528858 
L 226.631661 28.136852 
L 225.451051 28.529664 
L 221.559931 32.85078 
L 221.587556 29.807737 
L 220.882666 25.252724 
L 217.23767 26.376206 
L 215.314582 25.098539 
L 212.932461 21.419636 
L 211.177992 24.314499 
L 209.52885 23.189271 
L 209.296367 21.338523 
L 207.799279 20.738033 
L 203.712691 21.334592 
L 201.431177 20.178937 
L 200.174955 22.329299 
L 197.925563 22.070005 
L 193.907519 23.560687 
L 191.648588 24.971096 
L 188.912552 25.939537 
L 184.513473 23.303444 
L 183.990388 19.560351 
L 178.370006 16.253476 
L 176.792578 15.709091 
L 173.56109 15.870755 
L 172.747652 16.958585 
L 173.035483 18.542614 
L 170.727647 18.989979 
L 169.563452 17.349062 
L 168.23914 17.274011 
L 167.869829 19.323165 
L 164.873995 20.654608 
L 163.384889 20.63658 
L 161.724933 18.325139 
L 160.214552 18.961475 
L 160.08826 20.5565 
L 161.158798 22.618597 
L 159.913697 23.874351 
L 157.453623 22.921668 
L 155.478048 24.122669 
L 155.446017 26.256895 
L 154.592155 27.330605 
L 149.277189 28.194474 
L 150.867716 30.315376 
L 152.04132 30.903591 
L 155.470021 30.720416 
L 155.662594 31.570643 
L 150.974571 34.633003 
L 159.319074 34.540901 
L 159.979936 34.874844 
L 160.843726 35.159947 
L 166.592536 35.279194 
L 169.037927 35.719966 
L 172.163514 35.612184 
L 174.381388 36.140671 
L 176.873683 38.163082 
L 176.976922 42.281067 
L 177.987482 43.032134 
L 180.706965 42.785465 
L 183.576238 47.211913 
L 184.111208 49.836551 
L 186.069703 48.637461 
L 189.352095 48.135042 
L 191.345111 50.746663 
L 193.222037 50.859732 
L 195.617936 53.097947 
L 198.665147 53.453164 
L 201.841637 53.582248 
L 203.863924 52.522198 
L 208.156375 53.354074 
L 208.675655 56.101866 
L 208.236428 57.002435 
L 210.384071 57.820816 
L 212.815012 54.905836 
L 211.268135 54.045588 
L 212.778689 51.05714 
L 214.026534 50.742398 
L 216.931003 51.387061 
L 217.72406 49.166123 
L 216.457854 48.415616 
L 215.015908 45.887532 
L 216.417345 44.824773 
L 223.142802 43.580283 
L 225.456392 42.284607 
L 226.347857 39.754697 
L 228.523717 39.744944 
L 226.798737 36.666012 
L 227.565214 36.105646 
" clip-path="url(#p4172d17357)" style="fill: #ffffff"/>
   </g>
   <g id="patch_179">
    <path d="M 237.735837 95.688418 
L 231.046939 95.670877 
L 229.946244 93.796044 
L 229.923371 90.588047 
L 228.900558 88.579113 
L 226.130767 88.304649 
L 222.362316 89.281039 
L 217.759117 89.108684 
L 217.772015 85.063377 
L 213.606172 85.298424 
L 209.214504 84.874347 
L 209.194556 75.281857 
L 208.123221 75.362326 
L 188.392707 76.961918 
L 188.525152 78.586885 
L 191.233227 91.220088 
L 193.864327 104.468771 
L 189.220289 104.717859 
L 189.192051 105.960061 
L 201.503915 106.129319 
L 203.484842 107.258966 
L 205.388926 106.603534 
L 205.321404 109.313674 
L 207.057756 110.408229 
L 208.513187 110.253929 
L 208.550694 106.05944 
L 221.252376 105.389205 
L 225.060478 106.303612 
L 227.607338 105.851231 
L 237.700651 105.890459 
L 237.735837 95.688418 
" clip-path="url(#p4172d17357)" style="fill: #ffffff"/>
   </g>
   <g id="patch_180">
    <path d="M 208.236428 57.002435 
L 208.064318 57.975036 
L 208.123221 75.362326 
L 209.194556 75.281857 
L 209.214504 84.874347 
L 213.606172 85.298424 
L 217.772015 85.063377 
L 217.759117 89.108684 
L 222.362316 89.281039 
L 226.130767 88.304649 
L 228.900558 88.579113 
L 229.923371 90.588047 
L 229.946244 93.796044 
L 231.046939 95.670877 
L 237.735837 95.688418 
L 237.716557 72.462539 
L 239.662073 70.417282 
L 238.182011 68.999846 
L 239.355452 67.851456 
L 238.09221 65.176575 
L 235.869765 64.042226 
L 236.296049 63.218681 
L 235.516356 63.408962 
L 231.852058 61.27697 
L 230.199669 62.550531 
L 226.16084 62.034803 
L 225.496859 64.934527 
L 222.712127 64.010436 
L 221.434663 62.612819 
L 219.339929 62.629204 
L 217.419279 61.306127 
L 217.267681 63.591757 
L 215.077603 62.179023 
L 211.675545 61.860248 
L 210.384071 57.820816 
L 208.236428 57.002435 
" clip-path="url(#p4172d17357)" style="fill: #ffffff"/>
   </g>
   <g id="patch_181">
    <path d="M 266.830883 71.217492 
L 242.610842 71.339514 
L 239.662073 70.417282 
L 237.716557 72.462539 
L 237.735837 95.688418 
L 237.700651 105.890459 
L 237.654667 112.171634 
L 240.781739 112.286214 
L 240.794912 109.761445 
L 247.460567 109.749214 
L 249.838235 107.803566 
L 253.993046 110.095521 
L 255.797913 107.492158 
L 259.177882 106.082739 
L 259.781396 105.298181 
L 260.062961 100.543684 
L 261.329054 98.831296 
L 265.774927 97.185467 
L 266.906637 96.057633 
L 266.950379 89.726082 
L 270.928729 90.147608 
L 273.933379 85.677266 
L 274.154258 81.56852 
L 266.910731 81.483951 
L 266.830883 71.217492 
" clip-path="url(#p4172d17357)" style="fill: #ffffff"/>
   </g>
   <g id="patch_182">
    <path d="M 266.862248 51.288015 
L 265.78437 51.162554 
L 264.010301 52.72179 
L 257.866204 55.794619 
L 257.907314 62.970024 
L 247.140485 63.000022 
L 247.226862 64.130495 
L 242.58071 64.190449 
L 238.09221 65.176575 
L 239.355452 67.851456 
L 238.182011 68.999846 
L 239.662073 70.417282 
L 242.610842 71.339514 
L 266.830883 71.217492 
L 267.513105 71.139696 
L 267.355004 62.13851 
L 267.469735 51.607385 
L 266.862248 51.288015 
" clip-path="url(#p4172d17357)" style="fill: #ffffff"/>
   </g>
   <g id="patch_183">
    <path d="M 298.172297 51.254625 
L 295.992924 50.258687 
L 296.419303 47.336711 
L 295.842809 45.884955 
L 293.465238 45.709258 
L 292.32615 46.942534 
L 291.236874 51.498202 
L 290.122732 52.881023 
L 287.704822 53.511297 
L 286.654571 53.042675 
L 285.633954 49.704589 
L 283.180654 48.820419 
L 281.823518 50.908311 
L 279.237116 51.956174 
L 277.652137 50.75447 
L 277.714379 49.055405 
L 281.068584 46.511973 
L 280.040677 45.243582 
L 278.200618 44.488774 
L 278.343375 40.735 
L 276.671702 39.790428 
L 274.797965 40.894674 
L 272.391638 41.356464 
L 270.740338 37.900035 
L 269.528318 37.446624 
L 269.191179 43.023588 
L 270.427967 44.049595 
L 268.462907 49.12649 
L 267.985796 51.831211 
L 272.487601 53.113776 
L 273.201413 53.669134 
L 277.735375 60.973066 
L 278.110306 62.095366 
L 278.313304 66.638979 
L 278.058271 68.194919 
L 281.406664 59.619839 
L 282.148415 61.200254 
L 285.763238 63.058871 
L 287.700573 58.244677 
L 291.700135 61.528465 
L 293.61995 61.740745 
L 294.791204 60.037823 
L 298.104264 57.038664 
L 296.430561 54.740647 
L 298.172297 51.254625 
" clip-path="url(#p4172d17357)" style="fill: #ffffff"/>
   </g>
   <g id="patch_184">
    <path d="M 276.794895 71.399837 
L 280.40211 72.141964 
L 283.109833 72.064143 
L 284.738542 71.08087 
L 287.442491 71.895492 
L 291.678266 69.837629 
L 296.780452 65.696493 
L 297.886649 65.874654 
L 302.089936 64.018293 
L 305.250214 63.588519 
L 305.813494 62.962715 
L 305.575253 55.13477 
L 305.981402 53.75607 
L 304.971484 50.395274 
L 304.892593 45.125993 
L 302.962282 44.983885 
L 302.486953 48.334027 
L 301.196863 50.304378 
L 298.172297 51.254625 
L 296.430561 54.740647 
L 298.104264 57.038664 
L 294.791204 60.037823 
L 293.61995 61.740745 
L 291.700135 61.528465 
L 287.700573 58.244677 
L 285.763238 63.058871 
L 282.148415 61.200254 
L 281.406664 59.619839 
L 278.058271 68.194919 
L 276.794895 71.399837 
" clip-path="url(#p4172d17357)" style="fill: #ffffff"/>
   </g>
   <g id="patch_185">
    <path d="M 278.058271 68.194919 
L 278.313304 66.638979 
L 278.110306 62.095366 
L 267.355004 62.13851 
L 267.513105 71.139696 
L 266.830883 71.217492 
L 266.910731 81.483951 
L 274.154258 81.56852 
L 273.933379 85.677266 
L 270.928729 90.147608 
L 266.950379 89.726082 
L 266.906637 96.057633 
L 269.05318 93.896611 
L 272.616463 88.84147 
L 274.383152 85.70187 
L 275.056405 77.711414 
L 276.794895 71.399837 
L 278.058271 68.194919 
" clip-path="url(#p4172d17357)" style="fill: #ffffff"/>
   </g>
   <g id="patch_186">
    <path d="M 278.110306 62.095366 
L 277.735375 60.973066 
L 273.201413 53.669134 
L 272.487601 53.113776 
L 267.985796 51.831211 
L 268.462907 49.12649 
L 270.427967 44.049595 
L 269.191179 43.023588 
L 269.528318 37.446624 
L 268.468194 38.406113 
L 268.389525 42.883382 
L 266.853378 45.344026 
L 266.862248 51.288015 
L 267.469735 51.607385 
L 267.355004 62.13851 
L 278.110306 62.095366 
" clip-path="url(#p4172d17357)" style="fill: #ffffff"/>
   </g>
   <g id="patch_187">
    <path d="M 266.853378 45.344026 
L 265.526603 44.169019 
L 265.58807 41.149117 
L 259.355101 40.434825 
L 260.750573 37.521779 
L 258.915604 33.966462 
L 257.6873 34.098731 
L 257.48298 37.348788 
L 254.887645 39.428501 
L 251.59614 40.866822 
L 251.055636 42.632404 
L 249.090542 43.554588 
L 249.108393 47.252422 
L 250.943011 47.038681 
L 251.142321 51.888214 
L 253.746686 51.714281 
L 255.173739 52.280977 
L 254.176441 55.736967 
L 250.258632 55.84147 
L 249.892969 56.669874 
L 251.673076 58.508596 
L 254.890086 60.313618 
L 257.907314 62.970024 
L 257.866204 55.794619 
L 264.010301 52.72179 
L 265.78437 51.162554 
L 266.862248 51.288015 
L 266.853378 45.344026 
" clip-path="url(#p4172d17357)" style="fill: #ffffff"/>
   </g>
   <g id="patch_188">
    <path d="M 249.090542 43.554588 
L 247.233409 43.452183 
L 247.582341 40.791355 
L 248.995299 38.274346 
L 248.728212 37.272438 
L 246.586677 35.417832 
L 244.927031 35.49891 
L 243.816349 38.221594 
L 240.924215 39.02274 
L 238.561046 39.130367 
L 236.611484 39.997298 
L 236.031911 42.066234 
L 232.471317 49.191833 
L 237.040881 51.377557 
L 235.085877 54.824034 
L 234.783814 56.339272 
L 238.608019 56.491393 
L 239.176774 58.694363 
L 237.140142 62.802604 
L 236.296049 63.218681 
L 235.869765 64.042226 
L 238.09221 65.176575 
L 242.58071 64.190449 
L 247.226862 64.130495 
L 247.140485 63.000022 
L 257.907314 62.970024 
L 254.890086 60.313618 
L 251.673076 58.508596 
L 249.892969 56.669874 
L 250.258632 55.84147 
L 254.176441 55.736967 
L 255.173739 52.280977 
L 253.746686 51.714281 
L 251.142321 51.888214 
L 250.943011 47.038681 
L 249.108393 47.252422 
L 249.090542 43.554588 
" clip-path="url(#p4172d17357)" style="fill: #ffffff"/>
   </g>
   <g id="patch_189">
    <path d="M 216.931003 51.387061 
L 214.026534 50.742398 
L 212.778689 51.05714 
L 211.268135 54.045588 
L 212.815012 54.905836 
L 210.384071 57.820816 
L 211.675545 61.860248 
L 215.077603 62.179023 
L 217.267681 63.591757 
L 217.419279 61.306127 
L 219.339929 62.629204 
L 221.434663 62.612819 
L 222.712127 64.010436 
L 225.496859 64.934527 
L 226.16084 62.034803 
L 230.199669 62.550531 
L 231.852058 61.27697 
L 235.516356 63.408962 
L 236.296049 63.218681 
L 237.140142 62.802604 
L 239.176774 58.694363 
L 238.608019 56.491393 
L 234.783814 56.339272 
L 231.241369 56.417636 
L 231.5235 54.222321 
L 222.261208 52.904799 
L 221.908337 54.401433 
L 219.941685 54.237956 
L 216.34908 53.159645 
L 216.931003 51.387061 
" clip-path="url(#p4172d17357)" style="fill: #ffffff"/>
   </g>
   <g id="patch_190">
    <path d="M 236.611484 39.997298 
L 236.339392 37.578496 
L 237.378161 35.692791 
L 236.451054 32.790465 
L 234.352814 31.947427 
L 233.405046 32.584713 
L 233.506198 34.344691 
L 231.490482 36.091186 
L 228.77412 37.557583 
L 227.565214 36.105646 
L 226.798737 36.666012 
L 228.523717 39.744944 
L 226.347857 39.754697 
L 225.456392 42.284607 
L 223.142802 43.580283 
L 216.417345 44.824773 
L 215.015908 45.887532 
L 216.457854 48.415616 
L 217.72406 49.166123 
L 216.931003 51.387061 
L 216.34908 53.159645 
L 219.941685 54.237956 
L 221.908337 54.401433 
L 222.261208 52.904799 
L 231.5235 54.222321 
L 231.241369 56.417636 
L 234.783814 56.339272 
L 235.085877 54.824034 
L 237.040881 51.377557 
L 232.471317 49.191833 
L 236.031911 42.066234 
L 236.611484 39.997298 
" clip-path="url(#p4172d17357)" style="fill: #ffffff"/>
   </g>
  </g>
 </g>
 <defs>
  <clipPath id="p4172d17357">
   <rect x="0" y="0" width="320.551945" height="345.6"/>
  </clipPath>
 </defs>
</svg>
